<?xml version="1.0" encoding="UTF-8"?>
<!DOCTYPE svg PUBLIC "-//W3C//DTD SVG 1.1//EN" "http://www.w3.org/Graphics/SVG/1.1/DTD/svg11.dtd">
<!-- Creator: CorelDRAW 2021 (64-Bit) -->
<svg xmlns="http://www.w3.org/2000/svg" xml:space="preserve" width="0.143858in" height="0.143858in" version="1.1" style="shape-rendering:geometricPrecision; text-rendering:geometricPrecision; image-rendering:optimizeQuality; fill-rule:evenodd; clip-rule:evenodd"
viewBox="0 0 143.86 143.86"
 xmlns:xlink="http://www.w3.org/1999/xlink"
 xmlns:xodm="http://www.corel.com/coreldraw/odm/2003">
 <defs>
  <style type="text/css">
   <![CDATA[
    .fil1 {fill:none}
    .fil0 {fill:#282522}
   ]]>
  </style>
   <clipPath id="id0">
    <path d="M11.67 1.41l117.72 0c7.2,0 13.07,5.88 13.07,13.07l0 117.72c0,7.19 -5.87,13.07 -13.07,13.07l-117.72 0c-7.2,0 -13.07,-5.88 -13.07,-13.07l0 -117.72c0,-7.19 5.87,-13.07 13.07,-13.07z"/>
   </clipPath>
 </defs>
 <g id="Layer_x0020_1">
  <metadata id="CorelCorpID_0Corel-Layer"/>
  <g>
  </g>
  <g style="clip-path:url(#id0)">
   <g>
    <g id="_3149987482944">
     <path class="fil0" d="M23.02 104.15c0.02,-1.45 4.34,-13.74 5.11,-15.91 1.88,-5.24 3.46,-10.39 5.3,-15.62 3.68,-10.45 6.98,-20.71 10.53,-31.33l10.39 -0.02 21.06 62.87 -8.77 -0.01 -5.85 -17.55 -23.86 0.03c-0.57,2.7 -4.63,15.42 -5.72,17.54l-8.19 0zm94.45 -2.61c-2.5,0.64 -4.72,1.84 -7.48,2.59 -13.59,3.69 -28.49,-0.48 -31.75,-16.21 -1.15,-5.57 -0.85,-12.64 0.94,-17.83 6.27,-18.29 29.44,-18.98 36.48,-5.88 3.01,5.61 2.57,10.39 2.71,17.18l-32.52 0.07c-1.59,11.76 9.36,20.16 22.57,15.72 5.6,-1.88 6.96,-4 9.08,-4.55l-0.03 8.9zm-127.16 12.13c0.1,13.74 2.17,19.54 9.23,28.48l2.58 2.45c0.06,0.05 0.15,0.1 0.21,0.15l2.6 2.08c0.42,0.32 0.79,0.67 1.44,1.06 2,1.22 4.46,2.43 6.87,3.24 11.7,3.92 43.91,2.48 57.63,2.48 13.29,0 26.71,0.17 39.99,-0.07 10.82,-0.2 19.1,-1.49 26.98,-8.2 5.23,-4.45 1.6,-1.28 5.2,-5.23l0.81 -0.98c5.6,-7.13 6.68,-16.81 6.86,-25.81 0.55,-26.43 0.28,-53.8 0.01,-80.28 -0.07,-6.74 -1,-15.24 -4.12,-21.06 -0.61,-1.14 -1.23,-2.37 -1.81,-3.24l-1.25 -1.62c-1.42,-1.74 -3.07,-3.9 -4.65,-5.07 -0.06,-0.05 -0.15,-0.1 -0.21,-0.15l-4.04 -3.15c-1.97,-1.21 -4.49,-2.44 -6.88,-3.23 -5.45,-1.82 -11.23,-2.29 -17.28,-2.42 -13.37,-0.28 -26.95,-0.07 -40.35,-0.07 -13.3,0 -26.66,-0.12 -39.95,0.07 -9.03,0.13 -18.67,1.44 -25.69,7.02 -0.06,0.05 -0.14,0.11 -0.2,0.16l-3.91 3.28c-1.14,1.16 -1.19,1.66 -2.24,2.8l-2.2 2.81c-4.52,7.35 -5.57,15.38 -5.66,24.18 -0.25,26.7 -0.19,53.6 0.01,80.31z"/>
     <path class="fil0" d="M39.39 79.37l19.03 0.02c-0.19,-2 -8.93,-28.23 -9.51,-28.94l-9.52 28.93z"/>
     <path class="fil0" d="M85.85 75.29l24.57 0.06c1.07,-6.01 -2.47,-13.75 -12.15,-13.47 -6.88,0.2 -12.76,6.28 -12.42,13.41z"/>
     <path class="fil0" d="M-9.69 113.68c-0.2,-26.7 -0.26,-53.61 -0.01,-80.31 0.08,-8.8 1.14,-16.83 5.66,-24.18l2.2 -2.81c1.05,-1.15 1.1,-1.65 2.24,-2.8l3.91 -3.28c0.06,-0.05 0.14,-0.11 0.2,-0.16 7.02,-5.58 16.66,-6.89 25.69,-7.02 13.3,-0.19 26.65,-0.07 39.95,-0.07 13.39,0 26.98,-0.22 40.35,0.07 6.05,0.13 11.83,0.6 17.28,2.42 2.39,0.8 4.91,2.02 6.88,3.23l4.04 3.15c0.06,0.04 0.15,0.1 0.21,0.15 1.57,1.17 3.23,3.33 4.65,5.07l1.25 1.62c0.59,0.87 1.2,2.1 1.81,3.24 3.12,5.82 4.05,14.32 4.12,21.06 0.28,26.47 0.54,53.85 -0.01,80.28 -0.19,9 -1.26,18.67 -6.86,25.81l-0.81 0.98c-3.61,3.95 0.02,0.78 -5.2,5.23 -7.88,6.71 -16.16,8 -26.98,8.2 -13.28,0.24 -26.7,0.07 -39.99,0.07 -13.72,0 -45.93,1.44 -57.63,-2.48 -2.41,-0.81 -4.88,-2.01 -6.87,-3.24 -0.65,-0.4 -1.02,-0.74 -1.44,-1.06l-2.6 -2.08c-0.06,-0.05 -0.15,-0.1 -0.21,-0.15l-2.58 -2.45c-7.06,-8.93 -9.13,-14.73 -9.23,-28.48zm-0.48 -81.04l0 81.4c0,6.11 0.89,12.76 2.57,17.24 3.41,9.09 10.8,16.55 19.91,20.07 4.58,1.77 11.3,2.67 17.5,2.67l82.13 0c24.17,0 39.26,-14.09 39.26,-39.98l0 -81.4c0,-16.85 -6.42,-31.12 -22.48,-37.31 -4.58,-1.77 -11.3,-2.67 -17.5,-2.67l-81.4 0c-12.07,0 -21.38,2.47 -29.45,10.54 -8.06,8.07 -10.54,17.31 -10.54,29.45z"/>
    </g>
   </g>
  </g>
  <path class="fil1" d="M11.67 1.41l117.72 0c7.2,0 13.07,5.88 13.07,13.07l0 117.72c0,7.19 -5.87,13.07 -13.07,13.07l-117.72 0c-7.2,0 -13.07,-5.88 -13.07,-13.07l0 -117.72c0,-7.19 5.87,-13.07 13.07,-13.07z"/>
 </g>
</svg>
