<?xml version="1.0" encoding="UTF-8"?>
<!DOCTYPE svg PUBLIC "-//W3C//DTD SVG 1.1//EN" "http://www.w3.org/Graphics/SVG/1.1/DTD/svg11.dtd">
<!-- Creator: CorelDRAW 2021 (64-Bit) -->
<svg xmlns="http://www.w3.org/2000/svg" xml:space="preserve" width="0.143858in" height="0.143858in" version="1.1" style="shape-rendering:geometricPrecision; text-rendering:geometricPrecision; image-rendering:optimizeQuality; fill-rule:evenodd; clip-rule:evenodd"
viewBox="0 0 143.86 143.86"
 xmlns:xlink="http://www.w3.org/1999/xlink"
 xmlns:xodm="http://www.corel.com/coreldraw/odm/2003">
 <defs>
  <style type="text/css">
   <![CDATA[
    .fil0 {fill:#2D2C2B}
   ]]>
  </style>
 </defs>
 <g id="Layer_x0020_1">
  <metadata id="CorelCorpID_0Corel-Layer"/>
  <g id="_1758008870752">
  </g>
  <path class="fil0" d="M102.85 62.98l-0 -5.29 6.48 0.01 0.02 6.24 4.31 0.02 2.11 -0.01 0 -0.95 -0.01 -5.3 3.3 0.01 2.58 0c0.95,0.1 0.37,-0.18 0.59,0.35l0.02 5.9 6.46 0.02 -0.03 6.26 -6.43 0.01 -0.02 5.76c0.06,0.53 0,0.24 0.18,0.48l1.93 0 4.37 -0.01 -0.01 6.28 -4.36 -0.02 -2.09 0.01 -0.01 0.98 0 5.28 -3.27 -0.01 -2.62 0c-0.94,-0.11 -0.36,0.17 -0.57,-0.35l-0.02 -5.9 -6.44 0.01 -0.02 1.11 -0.03 5.11 -3.7 0.02 -2.72 -0.02 -0.01 -2.61 0 -2.52 0.08 -1.08 -6.55 -0.02 0 -6.27 3.83 0.02 2.62 -0.02 0.01 -0.54 0 -2.53 0 -2.68 -0.01 -0.48 -2.74 -0.02 -3.7 -0.02 0.02 -6.22 6.42 0 0.01 -0.99zm-43.13 29.61c2.86,1.16 3.04,1.61 7.03,2.31 2.78,0.49 5.78,0.43 8.5,-0.13 3.11,-0.64 7.17,-2.45 9.49,-4.37l2.49 -2.19c0.69,0.23 1.04,0.39 1.37,0.85 0.46,0.05 0.56,-0.05 0.88,0.4 2.29,0.91 10,5.74 11.84,6.57 -1.49,2.23 -6.9,7.37 -9.24,8.43 -0.64,0.59 -2.86,1.78 -3.79,2.23 -1.28,0.63 -2.71,1.26 -4.26,1.81l-3.09 0.95c-2.45,0.92 -7.44,1.43 -10.36,1.42 -4.43,0.01 -8.65,-0.71 -12.4,-1.94 -2.21,-0.72 -8.64,-3.47 -9.48,-4.76 -0.82,-0.18 -2.25,-1.5 -3.01,-2.09l-4.06 -3.71 -3.23 -4.14c-1.37,-1.42 -3.92,-6.74 -4.73,-9.19 -1.2,-3.64 -1.89,-7.49 -1.9,-11.77 0.06,-4.93 1.04,-9.77 2.69,-13.66 0.93,-2.18 1.69,-3.65 2.8,-5.46 0.44,-0.72 2.98,-4.48 3.48,-4.62 0.96,-1.6 6.38,-6.61 8.29,-7.3 0.8,-0.77 3.33,-2.07 4.48,-2.59 1.69,-0.77 3.09,-1.34 4.96,-1.96 3.56,-1.17 7.8,-1.87 12.02,-1.88 2.33,-0.01 8.11,0.49 10.47,1.38 0.59,0.22 0.15,-0.02 0.47,0.26 1.18,-0 4.27,1.37 5.33,1.83 1.43,0.52 4.49,2.14 5.58,3.06 2.4,1.36 7.59,5.98 8.92,8.22 -0.64,0.62 -2.55,1.52 -3.48,2.04 -1.2,0.66 -2.3,1.31 -3.51,1.98l-7.03 3.9c-0.52,-0.33 -1.25,-1.13 -1.63,-1.47 -4.06,-3.72 -10.38,-5.93 -16.3,-5.56 -14.8,0.93 -24.21,14.32 -20.63,27.56 1.3,4.81 5.13,10.03 9.21,12.46 0.56,0.34 1.27,0.66 1.84,1.09zm0 -87.35c-0.15,0.19 -4.54,2.64 -5.08,2.81 -1.3,0.89 -2.86,1.64 -4.25,2.36 -1.43,0.74 -2.81,1.57 -4.26,2.26 -0.26,0.28 -1.84,1.03 -2.4,1.37 -0.63,0.39 -1.93,1.13 -2.51,1.19 -0.33,0.48 -4.82,2.87 -5.7,3.25 -1.31,0.72 -2.56,1.44 -3.95,2.19 -1.13,0.61 -2.96,1.76 -3.98,2.02 -0.33,0.39 -0.83,0.56 -1.32,0.85l-4.2 2.21c-0.49,0.44 -1.78,1.01 -2.48,1.4 -0.87,0.48 -1.72,1.2 -2.6,1.28 -0.47,0.61 -1.27,0.84 -1.99,1.24l-5.97 3.25c-7.3,4.51 -6.31,10.88 -6.33,18.02 -0.01,4.01 0,8.03 0,12.04l0 2.51 -0 2.71 0 2.49 0 2.71 0 2.51 0 2.71 0 2.5 -0 2.71 0 2.51 0 2.69 -0 2.5 0 2.72 0 2.51c-0,4.91 -0.56,10.07 2.74,13.89 2.02,2.33 2.96,2.69 5.78,4.33 0.9,0.34 1.9,1.04 2.75,1.5 0.83,0.45 1.93,1 2.7,1.48 0.57,0.26 5.22,2.64 5.77,3.21 0.64,0.13 1.94,0.91 2.57,1.31 0.69,0.44 1.78,0.8 2.29,1.29 1.32,0.51 2.94,1.55 4.27,2.25 0.86,0.45 3.44,1.63 3.92,2.32 0.74,0.06 0.87,0.26 1.5,0.62 0.52,0.3 0.96,0.54 1.35,0.77 0.6,0.35 2.28,1.12 2.56,1.48 1.04,0.33 1.89,0.94 2.86,1.43 0.89,0.45 1.8,0.96 2.63,1.45l5.15 2.88c0.74,0.25 2.42,1.09 2.81,1.62 0.72,0.08 2.19,1.01 2.97,1.43 0.88,0.48 2.26,0.97 2.78,1.69 0.8,0.07 1.6,0.67 2.29,1.06 0.79,0.46 1.27,0.73 2.1,1.1 1.44,0.64 3.04,1.44 4.92,1.31 2.47,0.35 4.72,-0.27 6.76,-1.08 1.73,-0.69 3.46,-2.02 5.17,-2.66 0.23,-0.22 4.72,-2.69 5.13,-2.81 1.15,-0.87 2.83,-1.59 4.13,-2.29 1.37,-0.74 2.79,-1.62 4.19,-2.25 0.67,-0.52 1.76,-0.9 2.6,-1.43 0.6,-0.38 1.93,-1.15 2.54,-1.34 0.76,-0.61 4.53,-2.59 5.68,-3.11 0.48,-0.34 1.36,-0.72 2.02,-1.1 0.61,-0.35 1.22,-0.74 1.92,-1.09 1.35,-0.69 2.72,-1.45 4.04,-2.17l5.49 -2.9 4.4 -2.48c0.65,-0.3 0.04,-0.13 0.66,-0.21 0.45,-0.57 4.8,-2.82 5.72,-3.25 1.65,-0.89 3.55,-1.93 4.93,-3.31 2.65,-2.66 3.63,-5.59 3.64,-9.6l-0 -2.73 0 -2.51 -0 -2.7 0 -2.5 0 -2.72 0 -2.5 -0 -2.71 0 -2.48 -0 -2.73 0 -2.5 0 -2.7 0 -2.5 0 -2.72 0 -2.5 -0 -2.71 0 -2.48 0 -2.73 -0 -2.5 0 -2.7 0 -2.5 0 -2.72 0 -2.49c-0,-3.5 -0.94,-6.4 -2.59,-8.5 -2.44,-3.13 -5.62,-4 -6.33,-4.87 -0.61,-0.14 -4.61,-2.27 -5,-2.64 -1.08,-0.42 -1.9,-1.02 -2.89,-1.5 -0.89,-0.43 -1.87,-0.94 -2.62,-1.5 -1.29,-0.52 -2.77,-1.45 -4.04,-2.13 -0.81,-0.44 -3.39,-1.76 -3.9,-2.22 -0.73,-0.17 -2.17,-1.1 -3.01,-1.51 -0.72,-0.35 -2.3,-1.1 -2.78,-1.69 -0.6,-0.07 -0.58,-0.17 -1.36,-0.57l-3.68 -2.11c-1.17,-0.37 -4.36,-2.21 -5.51,-2.89 -1.35,-0.78 -2.66,-1.41 -4.02,-2.18 -0.78,-0.44 -3.45,-1.81 -3.89,-2.23 -0.84,-0.22 -2.17,-1.11 -3.01,-1.52 -0.79,-0.38 -2.35,-1.13 -2.77,-1.69 -0.67,-0.05 -0.77,-0.27 -1.35,-0.57 -0.48,-0.26 -0.78,-0.44 -1.24,-0.71 -0.63,-0.36 -2.14,-0.99 -2.48,-1.28 -3.01,-0.91 -5.73,-1.49 -9.15,-0.48 -1.59,0.48 -2.33,0.89 -3.6,1.55 -1,0.52 -2.37,1.39 -3.44,1.75z"/>
 </g>
</svg>
