<?xml version="1.0" encoding="UTF-8"?>
<!DOCTYPE svg PUBLIC "-//W3C//DTD SVG 1.1//EN" "http://www.w3.org/Graphics/SVG/1.1/DTD/svg11.dtd">
<!-- Creator: CorelDRAW 2021 (64-Bit) -->
<svg xmlns="http://www.w3.org/2000/svg" xml:space="preserve" width="0.143858in" height="0.143858in" version="1.1" style="shape-rendering:geometricPrecision; text-rendering:geometricPrecision; image-rendering:optimizeQuality; fill-rule:evenodd; clip-rule:evenodd"
viewBox="0 0 143.86 143.86"
 xmlns:xlink="http://www.w3.org/1999/xlink"
 xmlns:xodm="http://www.corel.com/coreldraw/odm/2003">
 <defs>
  <style type="text/css">
   <![CDATA[
    .fil1 {fill:none}
    .fil0 {fill:#282522}
   ]]>
  </style>
   <clipPath id="id0">
    <path d="M11.67 1.41l117.72 0c7.2,0 13.07,5.88 13.07,13.07l0 117.72c0,7.19 -5.87,13.07 -13.07,13.07l-117.72 0c-7.2,0 -13.07,-5.88 -13.07,-13.07l0 -117.72c0,-7.19 5.87,-13.07 13.07,-13.07z"/>
   </clipPath>
 </defs>
 <g id="Layer_x0020_1">
  <metadata id="CorelCorpID_0Corel-Layer"/>
  <g>
  </g>
  <g style="clip-path:url(#id0)">
   <g>
    <g id="_3114102637392">
     <path class="fil0" d="M118.39 88.52l-3.91 17.39 -20.82 -0.07c-0.46,-1.28 -0.7,-2.87 -1.04,-4.27 -0.51,-2.1 -2.91,-12.19 -2.9,-13.08l28.67 0.03zm-121.65 -72.82c1.39,0.61 8.86,8.13 10.45,9.72l30.27 30.26c6.85,6.85 13.39,13.26 20.24,20.11 1.65,1.65 3.3,3.37 5.04,5.05 1.21,1.17 1.58,1.4 2.28,2.75 1.26,2.44 8.04,14.94 8.63,16.39 0.14,0.12 0.12,0.08 0.26,0.26 0.11,0.13 0.13,0.22 0.2,0.35 0.02,0.58 5.48,10.43 6.18,11.92 0.12,0.11 0.12,0.09 0.24,0.26 0.11,0.16 0.12,0.22 0.2,0.37 0.06,0.75 3.22,5.92 3.74,7.31 0.14,0.13 0.1,0.07 0.24,0.27 0.17,0.26 -0.11,-0.36 0.09,0.26l2.75 5.4c0.29,0.24 0.31,0.09 0.41,0.65 1.39,3.62 3.77,9.36 -3.3,8.1 -1.94,-0.35 -3.96,-1.1 -5.65,-1.8l-5.02 -2.25 -0.57 -0.33 -1.43 -0.71c-0.27,-0.11 -0.04,0.04 -0.33,-0.15 -0.24,-0.17 -0.09,-0.07 -0.27,-0.29 -0.42,-0.05 -11.8,-6.44 -13.17,-7.17 -1.67,-0.91 -11.77,-6.48 -13.3,-6.96 -0.17,-0.06 -0.41,-0.13 -0.56,-0.21 -0.37,-0.21 -0.18,-0.12 -0.33,-0.3 -1.7,-0.45 -5.98,-3.04 -7.3,-4.04 -1.28,-0.97 -4.64,-4.16 -5.86,-5.38l-8.47 -8.54c-4.59,-4.83 -9.38,-9.52 -14.06,-14.19 -1.97,-1.97 -9.73,-10.28 -11.59,-11.1l0 75.26 147.34 0.03 -0.01 -103.83c-0.56,0.33 -2.44,3.29 -3.06,4.15 -1.08,1.52 -1.89,2.63 -2.98,4.08 -3.56,4.76 -12.02,14.92 -16.15,19.16 -0.44,0.44 -3.1,3.31 -3.28,3.66 -0.24,0.72 -0.32,0.4 -0.8,0.91 -0.27,0.28 -0.3,0.56 -0.83,0.67 0.21,-0.39 0.37,-0.48 0.61,-0.88 0.21,-0.35 0.06,-0.19 0.35,-0.51l0.33 -0.32c0.02,-0.06 0.07,-0.06 0.11,-0.08 5.97,-7.61 20.04,-27.68 25.44,-37.14 0.53,-0.93 0.26,-3.08 0.26,-4.27 0,-1.41 0.09,-3.1 -0.05,-4.48 -0.54,0.59 -1.35,2.49 -1.81,3.42 -0.61,1.23 -1.16,2.19 -1.73,3.3 -4.9,9.44 -13.52,23.53 -19.73,31.43 -1.52,1.93 -2.99,3.87 -4.63,5.61l-3.82 3.96c-0.43,0.42 -0.86,0.72 -1.24,1.11 -0.16,0.23 -0.02,0.09 -0.26,0.28 -0.19,0.15 0.03,0.01 -0.26,0.09 0.13,-0.58 -0.02,-0.33 0.43,-0.62 0.11,-0.51 1.87,-3.43 2.35,-4.3 5.76,-10.61 10.44,-20.37 14.91,-31.77 2.58,-6.57 4.77,-12.73 7.07,-19.62 1.07,-3.22 5.34,-17.32 5.93,-20.9l-16.82 0.06c-0.46,0.18 -0.48,2.14 -0.53,2.61 -2.35,21.11 -7.06,36.5 -12.52,56.84 -0.87,3.24 -1.67,6.31 -2.53,9.59 -0.3,1.15 -2.08,9.25 -2.39,9.55 -0.46,0.46 -4.9,0.21 -5.87,0.14l-2.39 -9.7c-2.39,-9.5 -5.35,-19.17 -7.68,-28.5 -1.84,-7.37 -2.98,-12.19 -4.54,-19.7 -0.62,-2.96 -3.34,-18.72 -3.07,-20.89l-17.11 -0c0.26,1.73 0.93,3.93 1.39,5.55 3.75,13.21 6.43,21.96 11.69,35.15 4,10.05 7.73,18.08 12.65,27.56l4.7 8.67c-1.48,-0.72 -6.48,-6.4 -7.59,-7.8 -2.2,-2.79 -4.33,-5.57 -6.5,-8.63 -8.03,-11.31 -15.95,-25.85 -21.96,-38.57 -1.71,-3.63 -7.86,-17.85 -8.25,-21.93l-6.26 0.01c0.21,1.63 1.21,4.23 1.73,5.72 5.26,15.02 20.19,38.54 29.06,51.36 2.05,2.96 4.11,5.8 6.02,8.53 1.96,2.8 4.23,5.59 6.18,8.28 0.5,0.37 1.2,1.35 1.36,1.85 -0.52,-0.34 -1.34,-1.07 -1.57,-1.65l-10.75 -12.06c-6,-7.12 -11.06,-13.52 -16.41,-21.78 -5.91,-9.13 -11.97,-19.23 -16.57,-29.25 -0.84,-1.83 -1.54,-3.52 -2.28,-5.39l-1.9 -5.56c-1.22,-0.24 -42.69,-0.07 -43.81,-0.07l0 15.63z"/>
     <path class="fil0" d="M-3.26 42.92c1.9,0.71 13.17,12.02 15.06,13.91 4.86,4.87 9.7,9.53 14.48,14.48 2.35,2.43 4.79,4.8 7.2,7.2 2.92,2.91 11.75,12.65 14.93,14.05 2.41,1.06 3.89,-0.18 5.04,-1.43 1.08,-1.19 2.3,-3.29 1.27,-5.31 -0.7,-1.38 -2.16,-2.81 -3.3,-3.9 -1.26,-1.2 -2.37,-2.37 -3.61,-3.6 -2.46,-2.46 -4.86,-4.78 -7.31,-7.24l-39.86 -39.83c-0.7,-0.69 -3.18,-3.08 -3.89,-3.43l0 15.09z"/>
     <path class="fil1" d="M144.08 146.97l-147.34 -0.03 0 0.18 147.57 0 0 -147.26c-0.62,-0.26 -33.14,-0.13 -36.89,-0.13 -12.3,0 -24.6,0.04 -36.89,0.04 -24.59,0 -49.19,0 -73.78,0l0 0.07c12.25,0 24.5,0 36.75,0 3.08,0 6.18,0.11 9.22,0.11 2.94,0 6.39,-0.33 9.25,-0.05 3.13,0.31 14.37,-0.06 18.43,-0.06l64.56 0c1.54,0 3.07,0 4.61,0 0.85,-0 1.5,0.07 2.31,0.11l1.98 0.05c0.28,0.06 0.28,0.08 0.33,0.43 0.22,1.49 -0.19,23.48 0.03,27.08 0.04,0.65 0.07,1.36 0.1,2.1m0 5.88c-0.02,0.43 -0.05,0.85 -0.08,1.24 -0.25,2.81 0.08,6.2 0.08,9.08l-0.01 100.72c-0.1,0.44 0.03,0.19 -0.21,0.43"/>
     <path class="fil0" d="M-3.26 -0.23c24.6,0 49.19,0 73.78,0 12.3,0 24.6,-0.04 36.89,-0.04 3.75,0 36.27,-0.13 36.89,0.13l0 -0.31 -147.57 0 0 0.22z"/>
     <path class="fil0" d="M88.45 74.18c0.24,0.58 1.06,1.3 1.57,1.65 -0.16,-0.51 -0.85,-1.49 -1.36,-1.85 -0.01,0.29 0.07,0.22 -0.22,0.21z"/>
     <path class="fil0" d="M118.61 74.18c-0.3,0.02 -0.22,0.09 -0.23,-0.22 -0.04,0.02 -0.09,0.02 -0.11,0.08l-0.33 0.32c-0.29,0.32 -0.14,0.16 -0.35,0.51 -0.24,0.41 -0.39,0.49 -0.61,0.88 0.52,-0.11 0.56,-0.39 0.83,-0.67 0.48,-0.51 0.57,-0.19 0.8,-0.91z"/>
     <path class="fil0" d="M111.07 76.9c-0.2,-0.09 -0.24,0.17 -0.09,-0.25 -0.44,0.29 -0.3,0.04 -0.43,0.62 0.29,-0.07 0.07,0.06 0.26,-0.09 0.24,-0.19 0.09,-0.05 0.26,-0.28z"/>
     <path class="fil0" d="M44.91 115.43c-0.03,-0.02 -0.07,-0.11 -0.08,-0.08l-0.81 -0.43c0.15,0.18 -0.04,0.09 0.33,0.3 0.15,0.09 0.39,0.16 0.56,0.21z"/>
     <path class="fil0" d="M87.96 127c-0.09,-0.56 -0.11,-0.41 -0.41,-0.65 0.06,0.13 0.09,0.24 0.18,0.38 0.12,0.18 0.13,0.16 0.23,0.27z"/>
     <path class="fil0" d="M80.74 113.12c-0.07,-0.15 -0.08,-0.21 -0.2,-0.37 -0.13,-0.17 -0.13,-0.15 -0.24,-0.26 0.2,0.57 0.06,0.34 0.44,0.63z"/>
     <path class="fil0" d="M74.12 100.57c-0.07,-0.13 -0.1,-0.22 -0.2,-0.35 -0.14,-0.18 -0.12,-0.13 -0.26,-0.26 0.12,0.28 -0.05,0.08 0.17,0.35 0.19,0.24 0.04,0.06 0.3,0.26z"/>
     <path class="fil0" d="M71.98 130.01c-0.12,-0.14 -0.06,-0.12 -0.24,-0.25 -0.18,-0.12 -0.2,-0.11 -0.36,-0.19 0.18,0.22 0.03,0.12 0.27,0.29 0.29,0.2 0.07,0.04 0.33,0.15z"/>
     <path class="fil0" d="M84.81 120.96c-0.2,-0.62 0.07,-0 -0.09,-0.26 -0.14,-0.2 -0.09,-0.14 -0.24,-0.27 0.17,0.49 -0.08,-0.02 0.09,0.24 0.13,0.2 0.12,0.17 0.24,0.29z"/>
     <path class="fil0" d="M73.99 131.05c-0.51,-0.61 0.57,0.21 -0.17,-0.19 -0.36,-0.19 0.12,-0.02 -0.4,-0.15l0.57 0.33z"/>
    </g>
   </g>
  </g>
  <path class="fil1" d="M11.67 1.41l117.72 0c7.2,0 13.07,5.88 13.07,13.07l0 117.72c0,7.19 -5.87,13.07 -13.07,13.07l-117.72 0c-7.2,0 -13.07,-5.88 -13.07,-13.07l0 -117.72c0,-7.19 5.87,-13.07 13.07,-13.07z"/>
 </g>
</svg>
