<?xml version="1.0" encoding="UTF-8"?>
<!DOCTYPE svg PUBLIC "-//W3C//DTD SVG 1.1//EN" "http://www.w3.org/Graphics/SVG/1.1/DTD/svg11.dtd">
<!-- Creator: CorelDRAW 2021 (64-Bit) -->
<svg xmlns="http://www.w3.org/2000/svg" xml:space="preserve" width="0.143898in" height="0.143898in" version="1.1" style="shape-rendering:geometricPrecision; text-rendering:geometricPrecision; image-rendering:optimizeQuality; fill-rule:evenodd; clip-rule:evenodd"
viewBox="0 0 143.9 143.9"
 xmlns:xlink="http://www.w3.org/1999/xlink"
 xmlns:xodm="http://www.corel.com/coreldraw/odm/2003">
 <defs>
  <style type="text/css">
   <![CDATA[
    .fil0 {fill:#282522;fill-rule:nonzero}
   ]]>
  </style>
 </defs>
 <g id="Layer_x0020_1">
  <metadata id="CorelCorpID_0Corel-Layer"/>
  <path id="photoshop.svg" class="fil0" d="M11.7 1.39c-7.22,0 -13.08,5.85 -13.08,13.08l0 117.72c0,7.22 5.85,13.08 13.08,13.08l117.72 0c7.22,0 13.08,-5.85 13.08,-13.08l0 -117.72c0,-7.22 -5.85,-13.08 -13.08,-13.08l-117.72 0zm13.08 39.19l26.02 0c12.87,0 21.69,8.81 21.69,21.81 0,12.79 -9.13,21.55 -22.19,21.55l-13.99 0 0 21.15 -11.54 0 0 -64.52zm11.54 9.66l0 24.14 11.41 0c8.23,0 13.06,-4.29 13.06,-11.98 0,-7.91 -4.7,-12.16 -13.02,-12.16l-11.44 0zm61.76 4.95c11.62,0 18.92,5.15 19.72,14.04l-10.41 0c-0.8,-3.44 -4.07,-5.63 -9.26,-5.63 -5.05,0 -8.85,2.42 -8.85,5.95 0,2.77 2.32,4.47 7.24,5.58l8.62 1.96c9.35,2.1 13.68,6.13 13.68,13.32 0,9.4 -8.63,15.66 -20.83,15.66 -12.2,0 -19.89,-5.28 -20.74,-14.18l10.96 0c1.07,3.62 4.51,5.78 10.05,5.78 5.59,0 9.48,-2.46 9.48,-6.08 0,-2.77 -2.09,-4.52 -6.74,-5.56l-8.68 -2.01c-9.39,-2.14 -13.81,-6.48 -13.81,-13.86 0,-8.85 8.04,-14.98 19.57,-14.98z"/>
 </g>
</svg>
